HIERARCHY
ROOT pelvis
{
	OFFSET 0.000000 0.000000 0.657198
	CHANNELS 6 Xposition Yposition Zposition Xrotation Yrotation Zrotation
	JOINT spine
	{
		OFFSET 0.000000 0.000000 0.000000
		CHANNELS 6 Xposition Yposition Zposition Xrotation Yrotation Zrotation
		JOINT spine.001
		{
			OFFSET 0.000000 -0.011514 0.219692
			CHANNELS 3 Xrotation Yrotation Zrotation
			JOINT neck
			{
				OFFSET 0.000000 0.026810 0.218353
				CHANNELS 6 Xposition Yposition Zposition Xrotation Yrotation Zrotation
				JOINT face
				{
					OFFSET 0.000000 0.002570 0.147260
					CHANNELS 6 Xposition Yposition Zposition Xrotation Yrotation Zrotation
					End Site
					{
						OFFSET -0.000000 -0.024914 -0.006518
					}
				}
			}
			JOINT shoulder.L
			{
				OFFSET 0.000000 0.026810 0.218353
				CHANNELS 6 Xposition Yposition Zposition Yrotation Xrotation Zrotation
				JOINT upper_arm.L
				{
					OFFSET 0.140826 0.000000 0.000000
					CHANNELS 6 Xposition Yposition Zposition Xrotation Yrotation Zrotation
					JOINT forearm.L
					{
						OFFSET 0.217520 0.000097 0.000806
						CHANNELS 6 Xposition Yposition Zposition Xrotation Yrotation Zrotation
						End Site
						{
							OFFSET 0.163457 -0.002764 -0.001106
						}
					}
				}
			}
			JOINT shoulder.R
			{
				OFFSET 0.000000 0.026810 0.218353
				CHANNELS 6 Xposition Yposition Zposition Yrotation Xrotation Zrotation
				JOINT upper_arm.R
				{
					OFFSET -0.140826 0.000000 0.000000
					CHANNELS 6 Xposition Yposition Zposition Xrotation Yrotation Zrotation
					JOINT forearm.R
					{
						OFFSET -0.224204 0.000097 0.000806
						CHANNELS 6 Xposition Yposition Zposition Xrotation Yrotation Zrotation
						End Site
						{
							OFFSET -0.162731 -0.002751 -0.001106
						}
					}
				}
			}
		}
	}
	JOINT pelvis.L
	{
		OFFSET 0.000000 0.000000 0.000000
		CHANNELS 6 Xposition Yposition Zposition Yrotation Xrotation Zrotation
		End Site
		{
			OFFSET 0.091885 0.000000 0.000000
		}
	}
	JOINT pelvis.R
	{
		OFFSET 0.000000 0.000000 0.000000
		CHANNELS 6 Xposition Yposition Zposition Yrotation Xrotation Zrotation
		End Site
		{
			OFFSET -0.091885 0.000000 0.000000
		}
	}
	JOINT thigh.L
	{
		OFFSET 0.091885 0.000000 0.000000
		CHANNELS 6 Xposition Yposition Zposition Xrotation Yrotation Zrotation
		JOINT shin.L
		{
			OFFSET 0.016098 0.000000 -0.307172
			CHANNELS 6 Xposition Yposition Zposition Xrotation Yrotation Zrotation
			JOINT foot.L
			{
				OFFSET 0.014827 0.000000 -0.282918
				CHANNELS 3 Xrotation Yrotation Zrotation
				End Site
				{
					OFFSET 0.014923 -0.152161 -0.063895
				}
			}
			JOINT heel.02.L
			{
				OFFSET 0.014827 0.000000 -0.282918
				CHANNELS 3 Xrotation Yrotation Zrotation
				End Site
				{
					OFFSET -0.075118 0.028982 -0.070326
				}
			}
		}
	}
	JOINT thigh.R
	{
		OFFSET -0.091885 0.000000 0.000000
		CHANNELS 6 Xposition Yposition Zposition Xrotation Yrotation Zrotation
		JOINT shin.R
		{
			OFFSET -0.016176 0.000000 -0.308658
			CHANNELS 6 Xposition Yposition Zposition Xrotation Yrotation Zrotation
			JOINT foot.R
			{
				OFFSET -0.014947 0.000000 -0.285213
				CHANNELS 3 Xrotation Yrotation Zrotation
				End Site
				{
					OFFSET -0.014766 -0.150557 -0.063222
				}
			}
			JOINT heel.02.R
			{
				OFFSET -0.014947 0.000000 -0.285213
				CHANNELS 3 Xrotation Yrotation Zrotation
				End Site
				{
					OFFSET 0.070017 0.028982 -0.066267
				}
			}
		}
	}
}
MOTION
Frames: 4
Frame Time: 0.041667
-0.016861 -0.000264 0.647151 -0.000000 0.000000 -5.995772 0.000000 0.000000 0.000000 -8.730144 -0.819990 -0.105991 9.995812 0.243477 1.983453 0.000000 0.026810 0.218354 5.558327 -14.575557 -24.622065 -0.000000 0.002570 0.147260 6.057771 0.000005 0.000009 0.000000 0.026810 0.218353 -2.774479 0.008246 0.340499 0.140826 0.000000 0.000000 48.384722 49.264454 -88.518487 0.217520 0.000097 0.000806 66.094095 52.809202 -103.919805 0.000000 0.026810 0.218353 -2.723408 0.007945 0.334274 -0.140826 0.000000 0.000000 40.791225 -47.408261 80.196482 -0.224204 0.000097 0.000806 53.248418 -43.996387 101.110521 0.000000 -0.000000 0.000000 -2.565388 0.000002 0.000078 0.000000 -0.000000 0.000000 -2.565387 -0.000000 0.000000 0.091793 -0.000000 0.004113 4.501038 5.531752 0.018495 0.016098 -0.000000 -0.307172 2.675643 -6.476837 0.290806 -14.791053 0.542692 -3.588967 2.369764 -34.506730 -23.967830 -0.091793 -0.000000 -0.004113 0.506816 -7.171293 0.005215 -0.016176 0.000000 -0.308658 8.972844 3.502842 -0.744936 -13.000526 -1.184433 4.517466 1.885618 28.671024 19.240221 
-0.015612 0.000620 0.646768 -0.000000 0.000000 -6.009139 0.000000 0.000000 0.000000 -8.716780 -0.829210 -0.107086 9.995739 0.244007 1.987695 -0.000000 0.026810 0.218353 5.498609 -14.533265 -24.873870 0.000000 0.002570 0.147260 6.175112 -0.000000 -0.000000 0.000000 0.026810 0.218353 -2.717452 0.007910 0.333443 0.140826 0.000000 -0.000000 48.211730 49.372398 -88.145989 0.217520 0.000097 0.000806 66.710915 52.815162 -104.559063 0.000000 0.026810 0.218354 -2.666428 0.007617 0.327248 -0.140826 0.000000 -0.000000 40.920865 -47.446005 80.341767 -0.224204 0.000097 0.000806 53.239586 -43.994328 101.102728 0.000000 0.000000 0.000000 -2.545186 -0.000001 -0.000032 0.000000 0.000000 0.000000 -2.545223 -0.000000 0.000000 0.091794 0.000000 0.004080 4.450923 5.621671 0.014777 0.016098 -0.000000 -0.307172 2.589134 -6.466434 0.281168 -14.825417 0.537851 -3.584731 2.403292 -34.533013 -24.024794 -0.091794 0.000000 -0.004080 0.372469 -7.062393 0.003475 -0.016176 0.000000 -0.308658 9.115616 3.449939 -0.752642 -13.145705 -1.208425 4.575265 1.923487 28.533617 19.160982 
-0.014534 0.001230 0.646588 -0.000000 0.000000 -6.093175 0.000000 0.000000 -0.000000 -8.768326 -0.819191 -0.106165 9.995283 0.257746 2.099658 -0.000000 0.026810 0.218353 5.635003 -14.622974 -24.938079 -0.000000 0.002570 0.147260 6.215048 0.000002 -0.000003 0.000000 0.026811 0.218353 -2.734722 0.008012 0.335679 0.140826 0.000000 -0.000000 48.152513 49.586022 -87.788469 0.217520 0.000097 0.000806 67.716920 52.790966 -105.631963 0.000000 0.026811 0.218353 -2.683699 0.007715 0.329416 -0.140826 0.000000 -0.000000 41.117787 -47.561800 80.484224 -0.224204 0.000097 0.000806 53.155708 -44.027037 100.953795 0.000000 0.000000 -0.000000 -2.530378 0.000002 0.000091 0.000000 0.000000 -0.000000 -2.530378 -0.000000 -0.000000 0.091795 -0.000000 0.004057 4.444140 5.664339 0.013091 0.016098 0.000000 -0.307172 2.480728 -6.372602 0.267372 -14.902030 0.481648 -3.497159 2.448811 -34.520176 -24.055592 -0.091795 0.000000 -0.004057 0.253081 -6.950884 0.002112 -0.016176 0.000000 -0.308658 9.278657 3.378253 -0.760376 -13.274192 -1.262363 4.684403 1.967876 28.417089 19.105933 
-0.013511 0.001671 0.646541 -0.000000 0.000000 -6.145827 -0.000000 0.000000 0.000000 -8.864022 -0.790108 -0.103069 9.994215 0.283901 2.312849 -0.000000 0.026810 0.218353 5.807764 -14.790326 -24.975476 -0.000000 0.002570 0.147260 6.212431 -0.000001 0.000007 0.000000 0.026810 0.218353 -2.799012 0.008391 0.343456 0.140826 0.000000 -0.000000 48.353672 49.714515 -87.891025 0.217520 0.000097 0.000806 67.785482 52.860227 -105.618323 0.000000 0.026810 0.218353 -2.747990 0.008089 0.337231 -0.140826 0.000000 -0.000000 41.245740 -47.674519 80.526831 -0.224204 0.000097 0.000806 52.835304 -43.964244 100.652386 0.000000 -0.000000 -0.000000 -2.529151 0.000002 0.000101 0.000000 -0.000000 -0.000000 -2.529151 -0.000000 0.000000 0.091795 -0.000000 0.004055 4.440620 5.698858 0.011734 0.016098 -0.000000 -0.307172 2.379560 -6.264703 0.254235 -14.972862 0.428818 -3.414954 2.462749 -34.565016 -24.111765 -0.091795 0.000000 -0.004055 0.149794 -6.842776 0.001108 -0.016176 0.000000 -0.308658 9.447289 3.288800 -0.766900 -13.377285 -1.297396 4.756925 1.961353 28.370080 19.060391 
